PathFileType	4	(X/Y/Z)	C:/Users/opensim2020/Desktop/walking_exp_matlab/subject06_walking17_straight_03.trc	
DataRate	CameraRate	NumFrames	NumMarkers	Units	OrigDataRate	OrigDataStartFrame	OrigNumFrames	
100.00	100.00	8	45	mm	100.00	3355	295	
Frame#	Time	LFHD			RFHD			LBHD			RBHD			C7			T10			CLAV			STRN			RBAK			LSHO			LUPA			LELB			LFRM			LWRA			LWRB			LFIN			RSHO			RUPA			RELB			RFRM			RWRA			RWRB			RFIN			LASI			RASI			LPSI			RPSI			LTHI			LKNE			LTIB			LANK			LHEE			LTOE			RTHI			RKNE			RTIB			RANK			RHEE			RTOE			*39			*40			*41			*42			*43			*44			
		X1	Y1	Z1	X2	Y2	Z2	X3	Y3	Z3	X4	Y4	Z4	X5	Y5	Z5	X6	Y6	Z6	X7	Y7	Z7	X8	Y8	Z8	X9	Y9	Z9	X10	Y10	Z10	X11	Y11	Z11	X12	Y12	Z12	X13	Y13	Z13	X14	Y14	Z14	X15	Y15	Z15	X16	Y16	Z16	X17	Y17	Z17	X18	Y18	Z18	X19	Y19	Z19	X20	Y20	Z20	X21	Y21	Z21	X22	Y22	Z22	X23	Y23	Z23	X24	Y24	Z24	X25	Y25	Z25	X26	Y26	Z26	X27	Y27	Z27	X28	Y28	Z28	X29	Y29	Z29	X30	Y30	Z30	X31	Y31	Z31	X32	Y32	Z32	X33	Y33	Z33	X34	Y34	Z34	X35	Y35	Z35	X36	Y36	Z36	X37	Y37	Z37	X38	Y38	Z38	X39	Y39	Z39	X40	Y40	Z40	X41	Y41	Z41	X42	Y42	Z42	X43	Y43	Z43	X44	Y44	Z44	X45	Y45	Z45	

148	1.470	-1022.18640	121.09302	1673.20300	-891.51752	108.80957	1655.42456	-1039.03870	-7.77027	1613.55652	-910.83704	-18.85496	1600.46936	-982.25696	-9.34966	1458.38721	-974.09827	-50.30138	1130.32666	-979.79999	99.31562	1379.34192	-984.13959	135.21376	1203.09631	-898.65375	-85.26324	1291.17493	-1142.51489	46.78450	1410.31055	-1214.30078	42.46871	1207.42419	-1226.75159	39.10426	1095.22998	-1251.28235	72.94189	948.98578	-1212.31689	143.99309	839.66547	-1248.21094	83.28415	829.98669	-1252.90356	133.00595	754.19989	-819.48383	57.84533	1413.11646	-729.98297	37.78720	1212.88049	-718.10602	58.42538	1092.45081	-703.98834	92.23597	976.73895	-742.87860	170.37163	848.88464	-698.12872	120.68376	842.19043	-700.13739	168.95523	772.88013	-1082.87610	129.58545	970.34143	-862.16272	125.61657	971.90582	-1058.86768	-29.44131	995.87054	-889.64093	-25.74265	999.79724	-1145.88123	107.34058	655.25568	-1120.09412	138.28088	495.42029	-1120.24121	35.58588	264.35880	-1087.89233	-12.50849	96.91338	-1037.43030	-49.35827	85.19611	-1107.55042	117.83790	44.22260	-820.30774	59.85860	636.77533	-845.62305	55.92244	511.50778	-856.61084	-3.88953	250.02058	-913.12067	-21.94202	66.31290	-958.49719	-61.55500	42.72499	-916.64960	131.49994	32.13690	-971.74963	13.97912	1704.06067															 
149	1.480	-1022.45093	127.49875	1672.90417	-891.73389	115.28407	1655.29858	-1039.17883	-1.58257	1613.34790	-910.88049	-12.59223	1600.54712	-981.96063	-3.37419	1458.28284	-973.31323	-44.84667	1130.35254	-979.56122	105.10945	1379.11475	-983.70935	140.68852	1202.82300	-897.85858	-79.36993	1291.30786	-1142.27075	52.34612	1409.90918	-1213.63098	46.38071	1206.96155	-1226.22498	41.79195	1095.03223	-1251.11975	74.05460	948.36359	-1212.77209	143.49338	837.98682	-1248.33203	82.52669	829.20966	-1253.47681	131.37213	752.75153	-819.25513	64.00061	1413.14539	-729.56506	44.70057	1212.97803	-717.65839	65.66586	1092.60925	-703.49432	100.01655	977.03992	-742.39148	178.67679	849.56049	-697.40747	129.33774	842.77905	-699.52197	177.85728	773.64709	-1082.04810	135.25862	970.54254	-861.26984	130.59888	971.64008	-1058.26782	-23.93854	995.77991	-889.04144	-20.56564	999.44342	-1145.90881	113.99375	655.74725	-1120.17847	146.27534	496.02850	-1120.22302	50.96507	261.50992	-1087.61938	8.78632	92.52531	-1037.20752	-27.87010	79.97763	-1106.75098	140.91682	43.79630	-820.15277	63.73390	636.44507	-845.45251	58.88446	511.08963	-856.51685	-2.59218	249.99829	-913.31470	-21.70930	66.31625	-958.60474	-61.46791	42.92090	-916.85901	131.94379	31.93892	-972.02191	20.39535	1703.94336															 
150	1.490	-1022.70276	133.75710	1672.36255	-892.01929	121.84849	1655.19434	-1039.28455	4.72699	1613.16272	-911.00739	-6.22777	1600.55652	-981.66309	2.70947	1458.19824	-972.57465	-39.46265	1130.21509	-979.40070	110.92278	1378.79382	-983.31061	146.22772	1202.54346	-897.10132	-73.48991	1291.43494	-1141.99817	57.91177	1409.47485	-1213.51563	50.48505	1206.74817	-1225.87317	44.62061	1094.77075	-1251.17505	74.74969	947.75159	-1213.22961	143.18135	836.43176	-1248.42285	81.97715	828.48230	-1253.91907	129.86375	751.33521	-819.07458	70.25706	1413.16785	-729.20856	51.60571	1212.98096	-717.22675	72.80454	1092.74341	-703.03925	107.74574	977.33038	-741.89795	187.08630	850.21936	-697.12701	137.59239	843.17609	-698.91962	186.60016	774.44397	-1081.23804	141.01367	970.72144	-860.55292	135.83955	971.37262	-1057.67834	-18.36288	995.72162	-888.45941	-15.25120	999.04547	-1146.09961	120.52254	656.18561	-1120.26538	154.04147	496.56396	-1120.26514	66.55847	258.82980	-1087.46021	30.26808	88.55975	-1037.03992	-6.18721	74.94166	-1105.63342	163.90068	43.47117	-819.96155	67.76688	636.07300	-845.08691	62.26933	510.72141	-856.43463	-1.02988	249.93048	-913.40314	-21.47932	66.39249	-958.66461	-61.42673	43.20117	-916.80121	132.09406	31.78531	-972.28528	26.81563	1703.82605															 
151	1.500	-1022.99219	140.27827	1672.09131	-892.31659	128.14339	1654.93066	-1039.44250	10.95825	1612.97791	-911.10870	0.03841	1600.57043	-981.39777	8.50146	1458.01514	-971.89008	-34.00451	1130.30847	-979.27551	116.75810	1378.43945	-982.91962	151.71077	1202.19006	-896.41943	-67.59862	1291.50513	-1141.81262	63.44495	1409.03491	-1212.97961	54.45774	1206.28101	-1225.54077	47.42273	1094.48462	-1250.98657	75.92644	947.17944	-1213.61353	143.03156	834.99982	-1248.43323	81.43108	827.80426	-1254.11401	128.31755	750.05011	-818.88812	76.45092	1413.10229	-728.92725	58.33152	1212.95544	-716.87488	79.99226	1092.81201	-702.67303	115.43297	977.57971	-741.46124	195.39348	850.90601	-696.75903	146.00789	843.59406	-698.36456	195.42761	775.16718	-1080.51721	146.69983	970.83435	-859.88416	141.10393	971.02448	-1057.15308	-12.80959	995.64130	-887.90649	-10.03293	998.79761	-1146.25745	126.95530	656.61096	-1120.47729	161.77945	497.07709	-1120.40613	82.29948	256.32468	-1087.35901	51.89611	84.97707	-1037.08386	15.65004	70.57542	-1104.36292	187.08954	43.45325	-819.84229	71.84323	635.63989	-844.89575	65.79182	510.35687	-856.40161	0.84296	249.80457	-913.38251	-21.24274	66.59704	-958.72552	-61.22609	43.37479	-916.75964	132.28221	31.66671	-972.60333	33.35770	1703.68506															 
152	1.510	-1023.36615	146.62280	1671.39124	-892.62695	134.74203	1654.74036	-1039.63647	17.26991	1612.76709	-911.28534	6.40333	1600.56506	-981.22437	14.47603	1457.83801	-971.20740	-28.42409	1129.98596	-979.17572	122.64637	1378.12964	-982.60193	157.31577	1201.86926	-895.81671	-61.64170	1291.46265	-1141.80542	69.10857	1408.67334	-1212.62561	58.39296	1205.85132	-1225.41846	50.40431	1094.12036	-1250.95618	76.67681	946.52820	-1213.89355	142.93555	833.58521	-1248.35486	81.07893	827.11047	-1254.06567	126.65941	748.64923	-818.79749	82.63682	1413.03308	-728.67651	64.99518	1212.93555	-716.59088	87.10963	1092.90942	-702.31348	123.10087	977.81427	-740.99890	203.71564	851.53888	-696.12811	154.33867	844.08698	-697.78552	203.94870	775.88892	-1079.75085	152.53308	970.90594	-859.24500	146.37958	970.68982	-1056.71741	-7.12899	995.52533	-887.52423	-4.59152	998.48383	-1146.51636	133.34608	656.95135	-1120.72644	169.29828	497.50912	-1120.47717	98.22253	254.03020	-1087.39014	73.61453	81.82756	-1037.24585	37.23696	66.88750	-1102.74402	210.14333	43.30500	-819.73218	75.99281	635.17267	-844.81366	69.53131	509.87613	-856.41266	2.75902	249.73337	-913.49030	-20.94106	66.69308	-958.85181	-61.04955	43.58490	-916.72681	132.44112	31.54315	-972.93634	39.88732	1703.53613															 
153	1.520	-1023.74969	153.13745	1671.00977	-892.99280	141.20547	1654.44897	-1039.77478	23.59594	1612.50256	-911.43005	12.72465	1600.53784	-981.07690	20.48860	1457.62891	-970.62628	-22.84013	1129.81104	-979.11548	128.50912	1377.76599	-982.30859	163.02554	1201.51172	-895.18384	-55.70881	1291.49878	-1141.58496	74.72500	1408.01245	-1212.42358	62.42998	1205.43250	-1224.93457	53.12267	1093.79785	-1250.81079	77.87313	945.90356	-1214.08594	143.00372	832.27594	-1248.24854	80.85671	826.42877	-1254.13721	125.46438	747.56964	-818.74640	88.90499	1412.93762	-728.44452	71.54571	1212.88696	-716.24628	94.15845	1092.90479	-702.02319	130.67828	978.03424	-740.58533	211.99594	852.21130	-695.78027	162.25026	844.53815	-697.27020	212.61632	776.56207	-1079.04773	158.43687	970.92444	-858.60980	151.75764	970.29083	-1056.25000	-1.34488	995.33783	-887.25586	1.12666	997.85211	-1146.62012	139.22426	657.13300	-1121.04321	176.69408	497.90579	-1120.99255	113.97284	252.06007	-1087.50195	95.36792	79.16251	-1037.87695	58.51087	63.87015	-1100.76318	233.07790	43.07473	-819.70007	80.32878	634.70398	-844.77081	73.19738	509.36029	-856.47913	4.71664	249.59081	-913.63251	-20.59711	66.79567	-958.97131	-60.86778	43.84385	-916.68842	132.63495	31.43827	-973.28302	46.40370	1703.32507															 
154	1.530	-1024.07544	159.64833	1670.65039	-893.37183	147.60175	1654.02942	-1040.05554	29.87426	1612.26672	-911.64673	19.15292	1600.49622	-980.97607	26.57105	1457.35925	-970.03180	-17.20266	1129.61060	-979.10223	134.50276	1377.34241	-982.05493	168.77209	1201.15918	-894.70972	-49.68326	1291.33960	-1141.55615	80.38783	1407.50159	-1212.41943	66.32358	1204.96912	-1224.65625	56.04634	1093.46790	-1250.52856	79.34653	945.29675	-1214.12183	143.60088	831.17029	-1247.95740	80.97874	825.72144	-1254.26489	124.65746	746.39569	-818.71191	95.15804	1412.78540	-728.30542	78.25036	1212.80029	-716.01239	101.19123	1092.92065	-701.72736	138.25874	978.23798	-740.24707	220.23805	852.81354	-695.79022	170.67126	844.76312	-696.93048	221.21811	777.26636	-1078.42114	164.23320	970.87091	-858.08710	157.30257	969.86481	-1055.88904	4.43479	995.15143	-886.89874	6.61089	997.49573	-1146.92480	145.45876	657.38281	-1121.34375	183.99651	498.26089	-1121.58826	129.71301	250.24811	-1087.72986	117.07427	76.98177	-1038.33984	80.18716	61.21163	-1098.71167	255.93034	43.05582	-819.70123	84.74849	634.22418	-844.74561	77.09596	508.91525	-856.62860	6.53233	249.57373	-913.93060	-20.22637	66.85896	-959.12451	-60.68511	44.17715	-916.67493	132.82893	31.34691	-973.64435	52.97305	1703.09277															 
155	1.540	-1024.49902	166.09146	1670.24048	-893.76843	154.06856	1653.68604	-1040.30176	36.23668	1611.94946	-911.88287	25.57337	1600.41553	-980.95612	32.47728	1456.92090	-969.48755	-11.30427	1129.26868	-979.13300	140.50385	1376.93713	-981.84058	174.57332	1200.74902	-894.20197	-43.67504	1291.31970	-1141.53577	86.05087	1406.91895	-1212.37537	70.46365	1204.54211	-1224.42993	59.08812	1093.07068	-1250.42456	80.52123	944.68317	-1214.15991	143.96045	829.92334	-1247.86426	81.02250	825.18060	-1254.12244	123.94940	745.20508	-818.71198	101.37119	1412.61926	-728.22162	84.87668	1212.68408	-715.79553	108.15404	1092.91260	-701.49847	145.73466	978.39917	-740.01294	228.41872	853.42798	-695.34735	178.98344	845.19073	-696.51685	229.59320	777.90424	-1077.82983	170.23022	970.74548	-857.57666	162.75757	969.39624	-1055.54089	10.19673	994.96313	-886.56079	12.21525	997.04907	-1147.30518	152.24094	657.94330	-1121.70483	191.05591	498.53070	-1122.07886	144.87030	248.94150	-1088.00586	138.65878	75.24667	-1038.85730	101.56730	59.13419	-1096.54089	278.57632	43.19806	-819.80225	89.20093	633.65894	-844.79126	80.70004	508.35626	-856.75494	8.20643	249.59930	-914.15253	-19.87708	67.05325	-959.28961	-60.55856	44.50928	-916.66339	132.98099	31.22447	-974.05933	59.57513	1702.85510															 
